<svg width="32" height="32" viewBox="0 0 32 32" fill="none" xmlns="http://www.w3.org/2000/svg">
<path d="M16.443 4C9.57006 4 4 9.52743 4 16.3471C4 18.5413 4.57686 20.6023 5.58802 22.3888C5.71192 22.6073 5.73457 22.8697 5.6533 23.1082L4.10525 27.6764C3.90141 28.2773 4.36503 28.8568 4.94589 28.8568C5.03514 28.8568 5.12707 28.8435 5.22032 28.8128L10.0723 27.2714C10.1602 27.2434 10.2522 27.2288 10.3441 27.2288C10.4813 27.2288 10.6185 27.2608 10.7424 27.3247C12.4503 28.2 14.3887 28.6942 16.443 28.6942C23.3147 28.6942 28.8861 23.1655 28.8861 16.3485C28.8861 9.52743 23.3147 4 16.443 4Z" fill="#6A02BB"/>
<path d="M21.1134 13.322C21.1134 12.8278 20.7124 12.4268 20.2182 12.4268H12.6657C12.1715 12.4268 11.7705 12.8278 11.7705 13.322L11.2109 19.6901C11.2109 20.3189 11.5573 20.8678 12.0689 21.1555C12.3114 21.2914 14.1059 21.7231 16.4426 21.7231C18.6395 21.7231 20.5912 21.2874 20.839 21.1422C21.3386 20.8518 21.673 20.3096 21.673 19.6901L21.1134 13.322ZM18.9459 19.1572C18.9459 19.3184 18.8153 19.4503 18.6528 19.4503H17.3192C17.158 19.4503 17.0261 19.3197 17.0261 19.1572V18.234C17.0261 18.0728 16.8956 17.9409 16.733 17.9409H16.1522C15.991 17.9409 15.8591 18.0714 15.8591 18.234V19.1572C15.8591 19.3184 15.7285 19.4503 15.566 19.4503H14.2324C14.0712 19.4503 13.9393 19.3197 13.9393 19.1572V14.8048C13.9393 14.6436 14.0699 14.5117 14.2324 14.5117H15.566C15.7272 14.5117 15.8591 14.6423 15.8591 14.8048V15.728C15.8591 15.8892 15.9897 16.0211 16.1522 16.0211H16.733C16.8942 16.0211 17.0261 15.8906 17.0261 15.728V14.8048C17.0261 14.6436 17.1567 14.5117 17.3192 14.5117H18.6528C18.814 14.5117 18.9459 14.6423 18.9459 14.8048V19.1572V19.1572Z" fill="#F3F3F3"/>
<path d="M14.7241 12.1135C15.0105 12.1908 15.3049 12.0203 15.3822 11.7338C15.5114 11.2542 15.9471 10.9198 16.4413 10.9198C16.9369 10.9198 17.3726 11.2542 17.5005 11.7338C17.5644 11.9736 17.7816 12.1322 18.0187 12.1322C18.0653 12.1322 18.1119 12.1255 18.1586 12.1135C18.445 12.0362 18.6155 11.7418 18.5383 11.4554C18.2838 10.5068 17.4219 9.84473 16.44 9.84473C15.4595 9.84473 14.5962 10.5068 14.3417 11.4554C14.2671 11.7418 14.4377 12.0362 14.7241 12.1135Z" fill="#F3F3F3"/>
</svg>
